<?xml version="1.0" encoding="utf-8"?>
<!-- Generator: Adobe Illustrator 18.1.1, SVG Export Plug-In . SVG Version: 6.00 Build 0)  -->
<!DOCTYPE svg PUBLIC "-//W3C//DTD SVG 1.1//EN" "http://www.w3.org/Graphics/SVG/1.1/DTD/svg11.dtd">
<svg version="1.1" id="Layer_1" xmlns="http://www.w3.org/2000/svg" xmlns:xlink="http://www.w3.org/1999/xlink" x="0px" y="0px"
	 viewBox="0 0 36.8 40.8" enable-background="new 0 0 36.8 40.8" xml:space="preserve">
<g>
	<defs>
		<rect id="SVGID_1_" x="0" y="0" width="36.8" height="40.9"/>
	</defs>
	<clipPath id="SVGID_2_">
		<use xlink:href="#SVGID_1_"  overflow="visible"/>
	</clipPath>
	<path clip-path="url(#SVGID_2_)" fill="#FFFFFF" d="M17.9,0L0,10.7v4.4h2.3l0.1,13.6h32V15.1l2.4,0v-4C30.7,7,24.3,3.6,17.9,0
		 M30.3,25.1H6.7v-13l11.7-7.2c4.1,2.3,8.2,4.4,12,7.2V25.1z"/>
</g>
<rect x="12.1" y="18.3" fill="#FFFFFF" width="12.2" height="3.9"/>
<rect x="12.1" y="13.3" fill="#FFFFFF" width="12.2" height="3.9"/>
<polygon fill="#FFFFFF" points="4.4,34.7 2.2,34.7 2.2,30.6 4.3,30.6 4.3,31.1 2.6,31.1 2.6,32.3 4.2,32.3 4.2,32.8 2.6,32.8 
	2.6,34.2 4.4,34.2 "/>
<g>
	<defs>
		<rect id="SVGID_3_" x="0" y="0" width="36.8" height="40.9"/>
	</defs>
	<clipPath id="SVGID_4_">
		<use xlink:href="#SVGID_3_"  overflow="visible"/>
	</clipPath>
	<path clip-path="url(#SVGID_4_)" fill="#FFFFFF" d="M7.3,35l-0.4-0.5c-0.2,0.2-0.4,0.3-0.8,0.3c-1.1,0-1.4-1.3-1.4-2.1
		c0-0.9,0.3-2.1,1.4-2.1c1.1,0,1.4,1.3,1.4,2.1c0,0.5-0.1,1.2-0.4,1.6l0.4,0.4L7.3,35z M6.4,33.5l0.4,0.4c0.2-0.3,0.3-0.7,0.3-1.3
		c0-1-0.4-1.7-1-1.7c-0.6,0-1,0.7-1,1.7c0,1,0.4,1.6,1,1.6c0.2,0,0.3,0,0.4-0.1l-0.3-0.3L6.4,33.5z"/>
	<path clip-path="url(#SVGID_4_)" fill="#FFFFFF" d="M10.2,30.6v2.6c0,0.8-0.4,1.5-1.2,1.5c-0.8,0-1.1-0.7-1.1-1.5v-2.7h0.4v2.6
		c0,0.9,0.4,1.1,0.7,1.1c0.4,0,0.8-0.2,0.8-1.1v-2.6H10.2z"/>
</g>
<path fill="#FFFFFF" d="M11.2,33.5l-0.3,1.2h-0.4l1.1-4.1H12l1.1,4.1h-0.4l-0.3-1.2H11.2z M12.2,33l-0.4-1.8h0L11.3,33H12.2z"/>
<polygon fill="#FFFFFF" points="13.7,34.2 15.2,34.2 15.2,34.7 13.3,34.7 13.3,30.6 13.7,30.6 "/>
<polygon fill="#FFFFFF" points="18.5,30.6 18.9,30.6 18.9,34.7 18.5,34.7 18.5,32.8 17,32.8 17,34.7 16.6,34.7 16.6,30.6 17,30.6 
	17,32.3 18.5,32.3 "/>
<g>
	<defs>
		<rect id="SVGID_5_" x="0" y="0" width="36.8" height="40.9"/>
	</defs>
	<clipPath id="SVGID_6_">
		<use xlink:href="#SVGID_5_"  overflow="visible"/>
	</clipPath>
	<path clip-path="url(#SVGID_6_)" fill="#FFFFFF" d="M20.7,34.8c-1.1,0-1.4-1.3-1.4-2.1c0-0.9,0.3-2.1,1.4-2.1
		c1.1,0,1.4,1.3,1.4,2.1C22.1,33.5,21.8,34.8,20.7,34.8 M20.7,31c-0.6,0-1,0.7-1,1.7c0,1,0.4,1.6,1,1.6c0.6,0,1-0.7,1-1.6
		C21.7,31.7,21.3,31,20.7,31"/>
	<path clip-path="url(#SVGID_6_)" fill="#FFFFFF" d="M24.4,30.6v2.6c0,0.9-0.4,1.1-0.8,1.1c-0.4,0-0.7-0.2-0.7-1.1v-2.6h-0.4v2.7
		c0,0.8,0.3,1.5,1.1,1.5c0.8,0,1.2-0.7,1.2-1.5v-2.6H24.4z"/>
	<path clip-path="url(#SVGID_6_)" fill="#FFFFFF" d="M27.1,31.8c0-0.6-0.4-0.8-0.7-0.8c-0.2,0-0.7,0.1-0.7,0.7
		c0,0.3,0.2,0.5,0.3,0.5l0.8,0.3c0.4,0.1,0.7,0.4,0.7,1.1c0,1-0.6,1.2-1.1,1.2c-0.5,0-0.8-0.2-0.9-0.4c-0.2-0.3-0.3-0.6-0.3-1h0.4
		c0,0.7,0.4,0.9,0.8,0.9c0.3,0,0.8-0.1,0.8-0.7c0-0.4-0.1-0.6-0.6-0.7l-0.6-0.2c-0.2-0.1-0.6-0.2-0.6-1c0-0.6,0.3-1.3,1-1.3
		c1,0,1.1,0.8,1.1,1.3H27.1z"/>
</g>
<rect x="28" y="30.6" fill="#FFFFFF" width="0.4" height="4.1"/>
<polygon fill="#FFFFFF" points="30.9,30.6 31.3,30.6 31.3,34.7 30.9,34.7 29.4,31.4 29.4,31.4 29.4,34.7 29,34.7 29,30.6 29.5,30.6 
	30.9,33.9 30.9,33.9 "/>
<g>
	<defs>
		<rect id="SVGID_7_" x="0" y="0" width="36.8" height="40.9"/>
	</defs>
	<clipPath id="SVGID_8_">
		<use xlink:href="#SVGID_7_"  overflow="visible"/>
	</clipPath>
	<path clip-path="url(#SVGID_8_)" fill="#FFFFFF" d="M33.1,32.5h1.3v2.2h-0.3L34,34.1c-0.2,0.4-0.6,0.6-1,0.6
		c-0.5,0-0.7-0.3-0.9-0.5c-0.4-0.6-0.5-1.3-0.5-1.7c0-1,0.4-2.1,1.4-2.1c0.5,0,1.1,0.4,1.2,1.3H34c-0.1-0.7-0.6-0.9-0.9-0.9
		c-0.5,0-0.9,0.6-0.9,1.6c0,0.8,0.2,1.7,1,1.7c0.1,0,0.4,0,0.6-0.3C34,33.7,34,33.4,34,33h-0.9V32.5z"/>
	<path clip-path="url(#SVGID_8_)" fill="#FFFFFF" d="M3.5,40.9c-1.3,0-1.7-1.3-1.7-2.1c0-0.9,0.4-2.1,1.7-2.1c1.3,0,1.7,1.3,1.7,2.1
		C5.2,39.6,4.8,40.9,3.5,40.9 M3.5,37.1c-0.7,0-1.2,0.7-1.2,1.6c0,1,0.4,1.7,1.2,1.7c0.7,0,1.2-0.7,1.2-1.7
		C4.7,37.8,4.2,37.1,3.5,37.1"/>
	<path clip-path="url(#SVGID_8_)" fill="#FFFFFF" d="M6.1,40.8H5.7v-4.1h1.5c0.6,0,1,0.5,1,1.1c0,0.6-0.3,1.2-1,1.2H6.1V40.8z
		 M6.1,38.6H7c0.4,0,0.7-0.2,0.7-0.7c0-0.5-0.3-0.7-0.7-0.7H6.1V38.6z"/>
	<path clip-path="url(#SVGID_8_)" fill="#FFFFFF" d="M9.2,40.8H8.7v-4.1h1.5c0.6,0,1,0.5,1,1.1c0,0.6-0.3,1.2-1,1.2H9.2V40.8z
		 M9.2,38.6h0.9c0.4,0,0.7-0.2,0.7-0.7c0-0.5-0.3-0.7-0.7-0.7H9.2V38.6z"/>
	<path clip-path="url(#SVGID_8_)" fill="#FFFFFF" d="M13.2,40.9c-1.3,0-1.7-1.3-1.7-2.1c0-0.9,0.4-2.1,1.7-2.1
		c1.3,0,1.7,1.3,1.7,2.1C14.9,39.6,14.5,40.9,13.2,40.9 M13.2,37.1c-0.7,0-1.2,0.7-1.2,1.6c0,1,0.4,1.7,1.2,1.7
		c0.7,0,1.2-0.7,1.2-1.7C14.4,37.8,14,37.1,13.2,37.1"/>
	<path clip-path="url(#SVGID_8_)" fill="#FFFFFF" d="M15.9,40.8h-0.5v-4.1H17c0.6,0,1.1,0.2,1.1,1.1c0,0.6-0.3,0.8-0.5,1
		c0.2,0.1,0.4,0.2,0.4,0.8l0,0.7c0,0.2,0,0.3,0.2,0.4v0.1h-0.6c-0.1-0.2-0.1-0.9-0.1-1c0-0.3-0.1-0.7-0.6-0.7h-1.1V40.8z M15.9,38.6
		h1.1c0.3,0,0.7-0.1,0.7-0.7c0-0.6-0.4-0.7-0.6-0.7h-1.1V38.6z"/>
</g>
<polygon fill="#FFFFFF" points="18.4,36.7 18.4,37.2 19.5,37.2 19.5,40.8 20,40.8 20,37.2 21.1,37.2 21.1,36.7 "/>
<g>
	<defs>
		<rect id="SVGID_9_" x="0" y="0" width="36.8" height="40.9"/>
	</defs>
	<clipPath id="SVGID_10_">
		<use xlink:href="#SVGID_9_"  overflow="visible"/>
	</clipPath>
	<path clip-path="url(#SVGID_10_)" fill="#FFFFFF" d="M23.7,36.7v2.6c0,0.9-0.5,1.1-0.9,1.1c-0.4,0-0.9-0.2-0.9-1.1v-2.6h-0.5v2.7
		c0,0.8,0.4,1.5,1.3,1.5c0.9,0,1.4-0.7,1.4-1.5v-2.6H23.7z"/>
</g>
<polygon fill="#FFFFFF" points="27.1,36.7 27.1,40 27.1,40 25.4,36.7 24.8,36.7 24.8,40.8 25.3,40.8 25.3,37.5 25.3,37.5 27,40.8 
	27.5,40.8 27.5,36.7 "/>
<rect x="28.2" y="36.7" fill="#FFFFFF" width="0.5" height="4.1"/>
<polygon fill="#FFFFFF" points="29.1,36.7 29.1,37.2 30.2,37.2 30.2,40.8 30.7,40.8 30.7,37.2 31.8,37.2 31.8,36.7 "/>
<polygon fill="#FFFFFF" points="34.4,36.7 33.4,38.7 32.4,36.7 31.9,36.7 33.2,39.2 33.2,40.8 33.6,40.8 33.6,39.2 34.9,36.7 "/>
</svg>
