<?xml version="1.0" encoding="utf-8"?>
<!-- Generator: Adobe Illustrator 18.1.1, SVG Export Plug-In . SVG Version: 6.00 Build 0)  -->
<!DOCTYPE svg PUBLIC "-//W3C//DTD SVG 1.1//EN" "http://www.w3.org/Graphics/SVG/1.1/DTD/svg11.dtd">
<svg version="1.1" id="Layer_1" xmlns="http://www.w3.org/2000/svg" xmlns:xlink="http://www.w3.org/1999/xlink" x="0px" y="0px"
	 viewBox="0 0 36.2 39.8" enable-background="new 0 0 36.2 39.8" xml:space="preserve">
<g>
	<defs>
		<rect id="SVGID_1_" x="0" y="0" width="36.2" height="39.8"/>
	</defs>
	<clipPath id="SVGID_2_">
		<use xlink:href="#SVGID_1_"  overflow="visible"/>
	</clipPath>
	<path clip-path="url(#SVGID_2_)" fill="#FFFFFF" d="M12,8.1l0.6,6.2l9-0.2l0.2,3.4L13,17.8l0.3,2.1l12-0.3L31,31.2l3.8-1.5l1.4,2.7
		l-6.7,2.9l-6.2-12l-13.1-0.5L8.5,6.2c0,0,2.7,2.4,3,2"/>
	<path clip-path="url(#SVGID_2_)" fill="#FFFFFF" d="M22.9,27.5l2.8,4.6C21.9,40.4,9.4,43,3,34.7S1.6,15.8,7.7,14L8,18.4
		C4.1,20.9,0.5,31,10,35C10,35,20,38.7,22.9,27.5"/>
	<path clip-path="url(#SVGID_2_)" fill="#FFFFFF" d="M11.5,0c2.3,0,4.1,1.8,4.1,4.1c0,2.3-1.8,4.1-4.1,4.1c-2.3,0-4.1-1.8-4.1-4.1
		C7.4,1.8,9.2,0,11.5,0"/>
</g>
</svg>
